<svg xmlns="http://www.w3.org/2000/svg" viewBox="0 0 32 32" fill="none">
  <rect width="32" height="32" rx="8" fill="#6366f1"/>
  <path d="M8 10a2 2 0 012-2h12a2 2 0 012 2v14a2 2 0 01-2 2H10a2 2 0 01-2-2V10z" fill="#fff" fill-opacity="0.2"/>
  <path d="M10 8h10v14H10a2 2 0 01-2-2V10a2 2 0 012-2z" fill="#fff" fill-opacity="0.9"/>
  <rect x="12" y="11" width="6" height="1.5" rx="0.75" fill="#6366f1"/>
  <rect x="12" y="14" width="8" height="1.5" rx="0.75" fill="#6366f1" fill-opacity="0.5"/>
  <rect x="12" y="17" width="5" height="1.5" rx="0.75" fill="#6366f1" fill-opacity="0.5"/>
</svg>
